<?xml version="1.0"?>
<svg version="1.1" xmlns="http://www.w3.org/2000/svg" width="400" height="50" style=""><path fill="#122794" d="M29.609375,48.984375l-6.0546875,0l0-23.515625l-7.75390625,0l0-5.0390625l21.5625,0l0,5.0390625l-7.75390625,0l0,23.515625z M57.9056640625,48.984375l-1.15234375-2.96875l-0.15625,0q-1.50390625,1.89453125-3.095703125,2.626953125t-4.150390625,0.732421875q-3.14453125,0-4.951171875-1.796875t-1.806640625-5.1171875q0-3.4765625,2.431640625-5.126953125t7.333984375-1.826171875l3.7890625-0.1171875l0-0.95703125q0-3.3203125-3.3984375-3.3203125q-2.6171875,0-6.15234375,1.58203125l-1.97265625-4.0234375q3.76953125-1.97265625,8.359375-1.97265625q4.39453125,0,6.73828125,1.9140625t2.34375,5.8203125l0,14.55078125l-4.16015625,0z M56.1478515625,38.8671875l-2.3046875,0.078125q-2.59765625,0.078125-3.8671875,0.9375t-1.26953125,2.6171875q0,2.51953125,2.890625,2.51953125q2.0703125,0,3.310546875-1.19140625t1.240234375-3.1640625l0-1.796875z M86.182421875,42.5q0,3.359375-2.333984375,5.1171875t-6.982421875,1.7578125q-2.3828125,0-4.0625-0.322265625t-3.14453125-0.947265625l0-4.921875q1.66015625,0.78125,3.740234375,1.30859375t3.662109375,0.52734375q3.2421875,0,3.2421875-1.875q0-0.703125-0.4296875-1.142578125t-1.484375-0.99609375t-2.8125-1.298828125q-2.51953125-1.0546875-3.701171875-1.953125t-1.71875-2.060546875t-0.537109375-2.861328125q0-2.91015625,2.255859375-4.501953125t6.396484375-1.591796875q3.9453125,0,7.67578125,1.71875l-1.796875,4.296875q-1.640625-0.703125-3.06640625-1.15234375t-2.91015625-0.44921875q-2.63671875,0-2.63671875,1.42578125q0,0.80078125,0.849609375,1.38671875t3.720703125,1.73828125q2.55859375,1.03515625,3.75,1.93359375t1.7578125,2.0703125t0.56640625,2.79296875z M99.3029296875,37.109375l2.59765625-3.3203125l6.11328125-6.640625l6.71875,0l-8.671875,9.47265625l9.19921875,12.36328125l-6.875,0l-6.2890625-8.84765625l-2.55859375,2.05078125l0,6.796875l-5.95703125,0l0-30.390625l5.95703125,0l0,13.5546875l-0.3125,4.9609375l0.078125,0z M121.603125,48.984375l0-28.5546875l6.0546875,0l0,28.5546875l-6.0546875,0z M148.6103515625,48.984375l-6.0546875,0l0-23.515625l-7.75390625,0l0-5.0390625l21.5625,0l0,5.0390625l-7.75390625,0l0,23.515625z M168.039453125,39.51171875l-4.765625,0l-0.99609375-19.08203125l6.7578125,0z M162.199609375,46.19140625q0-1.640625,0.87890625-2.48046875t2.55859375-0.83984375q1.62109375,0,2.509765625,0.859375t0.888671875,2.4609375q0,1.54296875-0.8984375,2.431640625t-2.5,0.888671875q-1.640625,0-2.5390625-0.869140625t-0.8984375-2.451171875z"/><path fill="#" d=""/></svg>
